<mxfile host="app.diagrams.net" agent="Mozilla/5.0 (Windows NT 10.0; Win64; x64) AppleWebKit/537.36 (KHTML, like Gecko) Chrome/135.0.0.0 Safari/537.36" version="26.2.14">
  <diagram name="Page-1" id="c37626ed-c26b-45fb-9056-f9ebc6bb27b6">
    <mxGraphModel dx="2852" dy="2352" grid="1" gridSize="10" guides="1" tooltips="1" connect="1" arrows="1" fold="1" page="1" pageScale="1" pageWidth="1100" pageHeight="850" background="none" math="0" shadow="0">
      <root>
        <mxCell id="0" />
        <mxCell id="1" parent="0" />
        <mxCell id="yPoj2qN-ZmkGyO0M9B97-2" value="&lt;font style=&quot;font-size: 51px;&quot;&gt;&lt;b style=&quot;&quot;&gt;&lt;u style=&quot;&quot;&gt;Head Quarters Network Diagram&lt;/u&gt;&lt;/b&gt;&lt;/font&gt;" style="text;html=1;align=center;verticalAlign=middle;whiteSpace=wrap;rounded=0;" vertex="1" parent="1">
          <mxGeometry x="640" y="-830" width="970" height="30" as="geometry" />
        </mxCell>
        <mxCell id="yPoj2qN-ZmkGyO0M9B97-4" value="" style="image;aspect=fixed;perimeter=ellipsePerimeter;html=1;align=center;shadow=0;dashed=0;spacingTop=3;image=img/lib/active_directory/firewall.svg;" vertex="1" parent="1">
          <mxGeometry x="455" y="-510" width="80" height="131.15" as="geometry" />
        </mxCell>
        <mxCell id="yPoj2qN-ZmkGyO0M9B97-5" value="" style="verticalLabelPosition=bottom;sketch=0;html=1;fillColor=#A153A0;strokeColor=#ffffff;verticalAlign=top;align=center;points=[[0,0.5,0],[0.125,0.25,0],[0.25,0,0],[0.5,0,0],[0.75,0,0],[0.875,0.25,0],[1,0.5,0],[0.875,0.75,0],[0.75,1,0],[0.5,1,0],[0.125,0.75,0]];pointerEvents=1;shape=mxgraph.cisco_safe.compositeIcon;bgIcon=mxgraph.cisco_safe.design.blank_device;resIcon=mxgraph.cisco_safe.design.sd_wan;" vertex="1" parent="1">
          <mxGeometry x="440" y="-325" width="110" height="85" as="geometry" />
        </mxCell>
        <mxCell id="yPoj2qN-ZmkGyO0M9B97-6" value="Primary internet&lt;br&gt;Router&amp;nbsp;" style="ellipse;whiteSpace=wrap;html=1;aspect=fixed;" vertex="1" parent="1">
          <mxGeometry x="345" y="-640" width="80" height="80" as="geometry" />
        </mxCell>
        <mxCell id="yPoj2qN-ZmkGyO0M9B97-7" value="Secondary Internet Router" style="ellipse;whiteSpace=wrap;html=1;aspect=fixed;" vertex="1" parent="1">
          <mxGeometry x="675" y="-640" width="80" height="80" as="geometry" />
        </mxCell>
        <mxCell id="yPoj2qN-ZmkGyO0M9B97-8" value="" style="image;aspect=fixed;perimeter=ellipsePerimeter;html=1;align=center;shadow=0;dashed=0;spacingTop=3;image=img/lib/active_directory/firewall.svg;" vertex="1" parent="1">
          <mxGeometry x="585" y="-510" width="80" height="131.15" as="geometry" />
        </mxCell>
        <mxCell id="yPoj2qN-ZmkGyO0M9B97-9" value="" style="verticalLabelPosition=bottom;sketch=0;html=1;fillColor=#A153A0;strokeColor=#ffffff;verticalAlign=top;align=center;points=[[0,0.5,0],[0.125,0.25,0],[0.25,0,0],[0.5,0,0],[0.75,0,0],[0.875,0.25,0],[1,0.5,0],[0.875,0.75,0],[0.75,1,0],[0.5,1,0],[0.125,0.75,0]];pointerEvents=1;shape=mxgraph.cisco_safe.compositeIcon;bgIcon=mxgraph.cisco_safe.design.blank_device;resIcon=mxgraph.cisco_safe.design.sd_wan;" vertex="1" parent="1">
          <mxGeometry x="575" y="-325" width="110" height="85" as="geometry" />
        </mxCell>
        <mxCell id="yPoj2qN-ZmkGyO0M9B97-10" value="" style="endArrow=none;html=1;rounded=0;entryX=0;entryY=0.5;entryDx=0;entryDy=0;" edge="1" parent="1" source="yPoj2qN-ZmkGyO0M9B97-4" target="yPoj2qN-ZmkGyO0M9B97-8">
          <mxGeometry width="50" height="50" relative="1" as="geometry">
            <mxPoint x="525" y="-380" as="sourcePoint" />
            <mxPoint x="575" y="-430" as="targetPoint" />
          </mxGeometry>
        </mxCell>
        <mxCell id="yPoj2qN-ZmkGyO0M9B97-11" value="" style="endArrow=none;html=1;rounded=0;entryX=0;entryY=0.5;entryDx=0;entryDy=0;entryPerimeter=0;" edge="1" parent="1" source="yPoj2qN-ZmkGyO0M9B97-5" target="yPoj2qN-ZmkGyO0M9B97-9">
          <mxGeometry width="50" height="50" relative="1" as="geometry">
            <mxPoint x="525" y="-380" as="sourcePoint" />
            <mxPoint x="575" y="-430" as="targetPoint" />
          </mxGeometry>
        </mxCell>
        <mxCell id="yPoj2qN-ZmkGyO0M9B97-12" value="" style="endArrow=none;html=1;rounded=0;entryX=0.68;entryY=0.909;entryDx=0;entryDy=0;entryPerimeter=0;" edge="1" parent="1" target="yPoj2qN-ZmkGyO0M9B97-6">
          <mxGeometry width="50" height="50" relative="1" as="geometry">
            <mxPoint x="465" y="-480" as="sourcePoint" />
            <mxPoint x="575" y="-430" as="targetPoint" />
          </mxGeometry>
        </mxCell>
        <mxCell id="yPoj2qN-ZmkGyO0M9B97-14" value="" style="endArrow=none;html=1;rounded=0;entryX=0;entryY=1;entryDx=0;entryDy=0;" edge="1" parent="1" target="yPoj2qN-ZmkGyO0M9B97-7">
          <mxGeometry width="50" height="50" relative="1" as="geometry">
            <mxPoint x="645" y="-480" as="sourcePoint" />
            <mxPoint x="575" y="-430" as="targetPoint" />
          </mxGeometry>
        </mxCell>
        <mxCell id="yPoj2qN-ZmkGyO0M9B97-15" value="" style="endArrow=none;html=1;rounded=0;exitX=0.003;exitY=0.463;exitDx=0;exitDy=0;exitPerimeter=0;entryX=0;entryY=0.5;entryDx=0;entryDy=0;" edge="1" parent="1" source="yPoj2qN-ZmkGyO0M9B97-5" target="yPoj2qN-ZmkGyO0M9B97-4">
          <mxGeometry width="50" height="50" relative="1" as="geometry">
            <mxPoint x="525" y="-380" as="sourcePoint" />
            <mxPoint x="575" y="-430" as="targetPoint" />
          </mxGeometry>
        </mxCell>
        <mxCell id="yPoj2qN-ZmkGyO0M9B97-16" value="" style="endArrow=none;html=1;rounded=0;exitX=1;exitY=0.5;exitDx=0;exitDy=0;exitPerimeter=0;entryX=1;entryY=0.5;entryDx=0;entryDy=0;" edge="1" parent="1" source="yPoj2qN-ZmkGyO0M9B97-9" target="yPoj2qN-ZmkGyO0M9B97-8">
          <mxGeometry width="50" height="50" relative="1" as="geometry">
            <mxPoint x="505" y="-315" as="sourcePoint" />
            <mxPoint x="465" y="-434" as="targetPoint" />
          </mxGeometry>
        </mxCell>
        <mxCell id="yPoj2qN-ZmkGyO0M9B97-18" value="Core Switch Stack" style="rounded=0;whiteSpace=wrap;html=1;" vertex="1" parent="1">
          <mxGeometry x="495" y="-140" width="120" height="60" as="geometry" />
        </mxCell>
        <mxCell id="yPoj2qN-ZmkGyO0M9B97-20" value="SD-wan 1" style="text;html=1;align=center;verticalAlign=middle;whiteSpace=wrap;rounded=0;" vertex="1" parent="1">
          <mxGeometry x="465" y="-355" width="60" height="30" as="geometry" />
        </mxCell>
        <mxCell id="yPoj2qN-ZmkGyO0M9B97-21" value="SD-wan 2" style="text;html=1;align=center;verticalAlign=middle;whiteSpace=wrap;rounded=0;" vertex="1" parent="1">
          <mxGeometry x="600" y="-355" width="60" height="30" as="geometry" />
        </mxCell>
        <mxCell id="yPoj2qN-ZmkGyO0M9B97-22" value="Firewall 1" style="text;html=1;align=center;verticalAlign=middle;whiteSpace=wrap;rounded=0;" vertex="1" parent="1">
          <mxGeometry x="455" y="-540" width="60" height="30" as="geometry" />
        </mxCell>
        <mxCell id="yPoj2qN-ZmkGyO0M9B97-23" value="Firewall 2" style="text;html=1;align=center;verticalAlign=middle;whiteSpace=wrap;rounded=0;" vertex="1" parent="1">
          <mxGeometry x="585" y="-540" width="60" height="30" as="geometry" />
        </mxCell>
        <mxCell id="yPoj2qN-ZmkGyO0M9B97-25" value="Internet&amp;nbsp;" style="ellipse;shape=cloud;whiteSpace=wrap;html=1;" vertex="1" parent="1">
          <mxGeometry x="495" y="-760" width="120" height="80" as="geometry" />
        </mxCell>
        <mxCell id="yPoj2qN-ZmkGyO0M9B97-26" value="" style="endArrow=classic;startArrow=classic;html=1;rounded=0;entryX=0.16;entryY=0.55;entryDx=0;entryDy=0;entryPerimeter=0;" edge="1" parent="1" source="yPoj2qN-ZmkGyO0M9B97-6" target="yPoj2qN-ZmkGyO0M9B97-25">
          <mxGeometry width="50" height="50" relative="1" as="geometry">
            <mxPoint x="535" y="-450" as="sourcePoint" />
            <mxPoint x="585" y="-500" as="targetPoint" />
          </mxGeometry>
        </mxCell>
        <mxCell id="yPoj2qN-ZmkGyO0M9B97-28" value="" style="endArrow=classic;startArrow=classic;html=1;rounded=0;entryX=0.875;entryY=0.5;entryDx=0;entryDy=0;entryPerimeter=0;exitX=0.5;exitY=0;exitDx=0;exitDy=0;" edge="1" parent="1" source="yPoj2qN-ZmkGyO0M9B97-7" target="yPoj2qN-ZmkGyO0M9B97-25">
          <mxGeometry width="50" height="50" relative="1" as="geometry">
            <mxPoint x="425" y="-617" as="sourcePoint" />
            <mxPoint x="524" y="-706" as="targetPoint" />
          </mxGeometry>
        </mxCell>
        <mxCell id="yPoj2qN-ZmkGyO0M9B97-29" value="" style="endArrow=none;html=1;rounded=0;entryX=0.5;entryY=1;entryDx=0;entryDy=0;entryPerimeter=0;" edge="1" parent="1" source="yPoj2qN-ZmkGyO0M9B97-18" target="yPoj2qN-ZmkGyO0M9B97-5">
          <mxGeometry width="50" height="50" relative="1" as="geometry">
            <mxPoint x="275" y="-140" as="sourcePoint" />
            <mxPoint x="325" y="-190" as="targetPoint" />
          </mxGeometry>
        </mxCell>
        <mxCell id="yPoj2qN-ZmkGyO0M9B97-31" value="" style="endArrow=none;html=1;rounded=0;entryX=0.5;entryY=1;entryDx=0;entryDy=0;entryPerimeter=0;exitX=0.617;exitY=-0.018;exitDx=0;exitDy=0;exitPerimeter=0;" edge="1" parent="1" source="yPoj2qN-ZmkGyO0M9B97-18" target="yPoj2qN-ZmkGyO0M9B97-9">
          <mxGeometry width="50" height="50" relative="1" as="geometry">
            <mxPoint x="630" y="-130.00000000000023" as="sourcePoint" />
            <mxPoint x="497" y="-231" as="targetPoint" />
          </mxGeometry>
        </mxCell>
        <mxCell id="yPoj2qN-ZmkGyO0M9B97-33" value="Main comms room Access Switch 1" style="rounded=0;whiteSpace=wrap;html=1;" vertex="1" parent="1">
          <mxGeometry x="65" y="20" width="120" height="60" as="geometry" />
        </mxCell>
        <mxCell id="yPoj2qN-ZmkGyO0M9B97-34" value="Main comms room Access Switch&amp;nbsp; 2" style="rounded=0;whiteSpace=wrap;html=1;" vertex="1" parent="1">
          <mxGeometry x="220" y="20" width="120" height="60" as="geometry" />
        </mxCell>
        <mxCell id="yPoj2qN-ZmkGyO0M9B97-35" value="Office area 1&lt;br&gt;Access Switch 3" style="rounded=0;whiteSpace=wrap;html=1;" vertex="1" parent="1">
          <mxGeometry x="390" y="20" width="120" height="60" as="geometry" />
        </mxCell>
        <mxCell id="yPoj2qN-ZmkGyO0M9B97-36" value="Office area 1&lt;br&gt;Access Switch 4" style="rounded=0;whiteSpace=wrap;html=1;" vertex="1" parent="1">
          <mxGeometry x="550" y="20" width="120" height="60" as="geometry" />
        </mxCell>
        <mxCell id="yPoj2qN-ZmkGyO0M9B97-44" value="Office area 2&lt;br&gt;Access Switch 5" style="rounded=0;whiteSpace=wrap;html=1;" vertex="1" parent="1">
          <mxGeometry x="780" y="20" width="120" height="60" as="geometry" />
        </mxCell>
        <mxCell id="yPoj2qN-ZmkGyO0M9B97-45" value="Office area 2&lt;br&gt;Access Switch 6" style="rounded=0;whiteSpace=wrap;html=1;" vertex="1" parent="1">
          <mxGeometry x="950" y="20" width="120" height="60" as="geometry" />
        </mxCell>
        <mxCell id="yPoj2qN-ZmkGyO0M9B97-46" value="" style="endArrow=none;html=1;rounded=0;entryX=0.5;entryY=1;entryDx=0;entryDy=0;exitX=0.5;exitY=0;exitDx=0;exitDy=0;" edge="1" parent="1" source="yPoj2qN-ZmkGyO0M9B97-33" target="yPoj2qN-ZmkGyO0M9B97-18">
          <mxGeometry width="50" height="50" relative="1" as="geometry">
            <mxPoint x="660" y="-110" as="sourcePoint" />
            <mxPoint x="710" y="-160" as="targetPoint" />
          </mxGeometry>
        </mxCell>
        <mxCell id="yPoj2qN-ZmkGyO0M9B97-48" value="" style="endArrow=none;html=1;rounded=0;exitX=0.5;exitY=0;exitDx=0;exitDy=0;entryX=0.5;entryY=1;entryDx=0;entryDy=0;" edge="1" parent="1" source="yPoj2qN-ZmkGyO0M9B97-34" target="yPoj2qN-ZmkGyO0M9B97-18">
          <mxGeometry width="50" height="50" relative="1" as="geometry">
            <mxPoint x="660" y="-110" as="sourcePoint" />
            <mxPoint x="560" y="-80" as="targetPoint" />
          </mxGeometry>
        </mxCell>
        <mxCell id="yPoj2qN-ZmkGyO0M9B97-49" value="" style="endArrow=none;html=1;rounded=0;entryX=0.5;entryY=1;entryDx=0;entryDy=0;exitX=0.5;exitY=0;exitDx=0;exitDy=0;" edge="1" parent="1" source="yPoj2qN-ZmkGyO0M9B97-35" target="yPoj2qN-ZmkGyO0M9B97-18">
          <mxGeometry width="50" height="50" relative="1" as="geometry">
            <mxPoint x="290" y="30" as="sourcePoint" />
            <mxPoint x="505" y="-70" as="targetPoint" />
          </mxGeometry>
        </mxCell>
        <mxCell id="yPoj2qN-ZmkGyO0M9B97-50" value="" style="endArrow=none;html=1;rounded=0;entryX=0.5;entryY=1;entryDx=0;entryDy=0;exitX=0.5;exitY=0;exitDx=0;exitDy=0;" edge="1" parent="1" source="yPoj2qN-ZmkGyO0M9B97-36" target="yPoj2qN-ZmkGyO0M9B97-18">
          <mxGeometry width="50" height="50" relative="1" as="geometry">
            <mxPoint x="300" y="40" as="sourcePoint" />
            <mxPoint x="515" y="-60" as="targetPoint" />
          </mxGeometry>
        </mxCell>
        <mxCell id="yPoj2qN-ZmkGyO0M9B97-51" value="" style="endArrow=none;html=1;rounded=0;exitX=0.5;exitY=0;exitDx=0;exitDy=0;entryX=0.5;entryY=1;entryDx=0;entryDy=0;" edge="1" parent="1" source="yPoj2qN-ZmkGyO0M9B97-44" target="yPoj2qN-ZmkGyO0M9B97-18">
          <mxGeometry width="50" height="50" relative="1" as="geometry">
            <mxPoint x="310" y="50" as="sourcePoint" />
            <mxPoint x="550" y="-80" as="targetPoint" />
          </mxGeometry>
        </mxCell>
        <mxCell id="yPoj2qN-ZmkGyO0M9B97-52" value="" style="endArrow=none;html=1;rounded=0;entryX=0.5;entryY=1;entryDx=0;entryDy=0;exitX=0.5;exitY=0;exitDx=0;exitDy=0;" edge="1" parent="1" source="yPoj2qN-ZmkGyO0M9B97-45" target="yPoj2qN-ZmkGyO0M9B97-18">
          <mxGeometry width="50" height="50" relative="1" as="geometry">
            <mxPoint x="320" y="60" as="sourcePoint" />
            <mxPoint x="535" y="-40" as="targetPoint" />
          </mxGeometry>
        </mxCell>
        <mxCell id="yPoj2qN-ZmkGyO0M9B97-53" value="AWS cloud" style="ellipse;whiteSpace=wrap;html=1;" vertex="1" parent="1">
          <mxGeometry x="1500" y="-150" width="120" height="80" as="geometry" />
        </mxCell>
        <mxCell id="yPoj2qN-ZmkGyO0M9B97-55" value="" style="endArrow=none;dashed=1;html=1;dashPattern=1 3;strokeWidth=2;rounded=0;entryX=1;entryY=0.5;entryDx=0;entryDy=0;exitX=0;exitY=0;exitDx=0;exitDy=0;" edge="1" parent="1" source="yPoj2qN-ZmkGyO0M9B97-53" target="yPoj2qN-ZmkGyO0M9B97-8">
          <mxGeometry width="50" height="50" relative="1" as="geometry">
            <mxPoint x="480" y="-240" as="sourcePoint" />
            <mxPoint x="530" y="-290" as="targetPoint" />
          </mxGeometry>
        </mxCell>
        <mxCell id="yPoj2qN-ZmkGyO0M9B97-56" value="&lt;font style=&quot;font-size: 21px;&quot;&gt;VPN-tunnel&lt;/font&gt;" style="edgeLabel;html=1;align=center;verticalAlign=middle;resizable=0;points=[];" vertex="1" connectable="0" parent="yPoj2qN-ZmkGyO0M9B97-55">
          <mxGeometry x="-0.0494" y="4" relative="1" as="geometry">
            <mxPoint y="-1" as="offset" />
          </mxGeometry>
        </mxCell>
        <mxCell id="yPoj2qN-ZmkGyO0M9B97-57" value="On-Prem CCTV Server&amp;nbsp;" style="swimlane;whiteSpace=wrap;html=1;startSize=30;" vertex="1" parent="1">
          <mxGeometry x="60" y="220" width="130" height="95" as="geometry" />
        </mxCell>
        <mxCell id="yPoj2qN-ZmkGyO0M9B97-61" value="ON-Prem Web-hosting Server&amp;nbsp;" style="swimlane;whiteSpace=wrap;html=1;startSize=30;" vertex="1" parent="1">
          <mxGeometry x="215" y="220" width="130" height="95" as="geometry" />
        </mxCell>
        <mxCell id="yPoj2qN-ZmkGyO0M9B97-65" value="" style="endArrow=none;html=1;rounded=0;entryX=0.5;entryY=1;entryDx=0;entryDy=0;exitX=0.5;exitY=0;exitDx=0;exitDy=0;" edge="1" parent="1" source="yPoj2qN-ZmkGyO0M9B97-57" target="yPoj2qN-ZmkGyO0M9B97-33">
          <mxGeometry width="50" height="50" relative="1" as="geometry">
            <mxPoint x="680" as="sourcePoint" />
            <mxPoint x="730" y="-50" as="targetPoint" />
          </mxGeometry>
        </mxCell>
        <mxCell id="yPoj2qN-ZmkGyO0M9B97-66" value="" style="endArrow=none;html=1;rounded=0;entryX=0.5;entryY=1;entryDx=0;entryDy=0;exitX=0.5;exitY=0;exitDx=0;exitDy=0;" edge="1" parent="1" source="yPoj2qN-ZmkGyO0M9B97-61" target="yPoj2qN-ZmkGyO0M9B97-34">
          <mxGeometry width="50" height="50" relative="1" as="geometry">
            <mxPoint x="240" y="160" as="sourcePoint" />
            <mxPoint x="290" y="110" as="targetPoint" />
          </mxGeometry>
        </mxCell>
        <mxCell id="yPoj2qN-ZmkGyO0M9B97-67" value="On-Prem Security servers" style="swimlane;whiteSpace=wrap;html=1;startSize=30;" vertex="1" parent="1">
          <mxGeometry x="60" y="350" width="130" height="95" as="geometry" />
        </mxCell>
        <mxCell id="yPoj2qN-ZmkGyO0M9B97-68" value="&amp;nbsp;On-Prem Applications Server" style="swimlane;whiteSpace=wrap;html=1;startSize=30;" vertex="1" parent="1">
          <mxGeometry x="215" y="350" width="130" height="95" as="geometry">
            <mxRectangle x="215" y="350" width="200" height="30" as="alternateBounds" />
          </mxGeometry>
        </mxCell>
        <mxCell id="yPoj2qN-ZmkGyO0M9B97-69" value="" style="endArrow=none;html=1;rounded=0;entryX=0.5;entryY=1;entryDx=0;entryDy=0;exitX=1;exitY=0.5;exitDx=0;exitDy=0;" edge="1" parent="1" source="yPoj2qN-ZmkGyO0M9B97-68" target="yPoj2qN-ZmkGyO0M9B97-34">
          <mxGeometry width="50" height="50" relative="1" as="geometry">
            <mxPoint x="290" y="230" as="sourcePoint" />
            <mxPoint x="290" y="90" as="targetPoint" />
            <Array as="points">
              <mxPoint x="360" y="240" />
            </Array>
          </mxGeometry>
        </mxCell>
        <mxCell id="yPoj2qN-ZmkGyO0M9B97-70" value="" style="endArrow=none;html=1;rounded=0;exitX=0;exitY=0.5;exitDx=0;exitDy=0;entryX=0.5;entryY=1;entryDx=0;entryDy=0;" edge="1" parent="1" source="yPoj2qN-ZmkGyO0M9B97-67" target="yPoj2qN-ZmkGyO0M9B97-33">
          <mxGeometry width="50" height="50" relative="1" as="geometry">
            <mxPoint x="355" y="408" as="sourcePoint" />
            <mxPoint x="120" y="80" as="targetPoint" />
            <Array as="points">
              <mxPoint x="40" y="250" />
            </Array>
          </mxGeometry>
        </mxCell>
        <mxCell id="yPoj2qN-ZmkGyO0M9B97-72" value="Multiple PC&#39;s" style="whiteSpace=wrap;html=1;aspect=fixed;" vertex="1" parent="1">
          <mxGeometry x="495" y="120" width="80" height="80" as="geometry" />
        </mxCell>
        <mxCell id="yPoj2qN-ZmkGyO0M9B97-73" value="" style="endArrow=none;html=1;rounded=0;entryX=0.5;entryY=1;entryDx=0;entryDy=0;exitX=0.5;exitY=0;exitDx=0;exitDy=0;" edge="1" parent="1" source="yPoj2qN-ZmkGyO0M9B97-72" target="yPoj2qN-ZmkGyO0M9B97-35">
          <mxGeometry width="50" height="50" relative="1" as="geometry">
            <mxPoint x="540" y="190" as="sourcePoint" />
            <mxPoint x="590" y="140" as="targetPoint" />
          </mxGeometry>
        </mxCell>
        <mxCell id="yPoj2qN-ZmkGyO0M9B97-75" value="" style="endArrow=none;html=1;rounded=0;entryX=0.5;entryY=1;entryDx=0;entryDy=0;exitX=0.5;exitY=0;exitDx=0;exitDy=0;" edge="1" parent="1" source="yPoj2qN-ZmkGyO0M9B97-72" target="yPoj2qN-ZmkGyO0M9B97-36">
          <mxGeometry width="50" height="50" relative="1" as="geometry">
            <mxPoint x="545" y="130" as="sourcePoint" />
            <mxPoint x="454" y="89" as="targetPoint" />
          </mxGeometry>
        </mxCell>
        <mxCell id="yPoj2qN-ZmkGyO0M9B97-77" value="AP1" style="rhombus;whiteSpace=wrap;html=1;" vertex="1" parent="1">
          <mxGeometry x="365" y="240" width="80" height="80" as="geometry" />
        </mxCell>
        <mxCell id="yPoj2qN-ZmkGyO0M9B97-78" value="AP4" style="rhombus;whiteSpace=wrap;html=1;" vertex="1" parent="1">
          <mxGeometry x="660" y="240" width="80" height="80" as="geometry" />
        </mxCell>
        <mxCell id="yPoj2qN-ZmkGyO0M9B97-79" value="AP2" style="rhombus;whiteSpace=wrap;html=1;" vertex="1" parent="1">
          <mxGeometry x="465" y="240" width="80" height="80" as="geometry" />
        </mxCell>
        <mxCell id="yPoj2qN-ZmkGyO0M9B97-80" value="AP3" style="rhombus;whiteSpace=wrap;html=1;" vertex="1" parent="1">
          <mxGeometry x="565" y="240" width="80" height="80" as="geometry" />
        </mxCell>
        <mxCell id="yPoj2qN-ZmkGyO0M9B97-81" value="" style="endArrow=none;html=1;rounded=0;entryX=0.5;entryY=1;entryDx=0;entryDy=0;exitX=0.5;exitY=0;exitDx=0;exitDy=0;" edge="1" parent="1" source="yPoj2qN-ZmkGyO0M9B97-77" target="yPoj2qN-ZmkGyO0M9B97-35">
          <mxGeometry width="50" height="50" relative="1" as="geometry">
            <mxPoint x="580" y="190" as="sourcePoint" />
            <mxPoint x="630" y="140" as="targetPoint" />
          </mxGeometry>
        </mxCell>
        <mxCell id="yPoj2qN-ZmkGyO0M9B97-82" value="" style="endArrow=none;html=1;rounded=0;exitX=0.5;exitY=0;exitDx=0;exitDy=0;" edge="1" parent="1" source="yPoj2qN-ZmkGyO0M9B97-79">
          <mxGeometry width="50" height="50" relative="1" as="geometry">
            <mxPoint x="415" y="250" as="sourcePoint" />
            <mxPoint x="450" y="80" as="targetPoint" />
          </mxGeometry>
        </mxCell>
        <mxCell id="yPoj2qN-ZmkGyO0M9B97-83" value="" style="endArrow=none;html=1;rounded=0;entryX=0.5;entryY=1;entryDx=0;entryDy=0;exitX=0.5;exitY=0;exitDx=0;exitDy=0;" edge="1" parent="1" source="yPoj2qN-ZmkGyO0M9B97-80" target="yPoj2qN-ZmkGyO0M9B97-36">
          <mxGeometry width="50" height="50" relative="1" as="geometry">
            <mxPoint x="425" y="260" as="sourcePoint" />
            <mxPoint x="470" y="100" as="targetPoint" />
          </mxGeometry>
        </mxCell>
        <mxCell id="yPoj2qN-ZmkGyO0M9B97-84" value="" style="endArrow=none;html=1;rounded=0;entryX=0.5;entryY=1;entryDx=0;entryDy=0;exitX=0.5;exitY=0;exitDx=0;exitDy=0;" edge="1" parent="1" source="yPoj2qN-ZmkGyO0M9B97-78" target="yPoj2qN-ZmkGyO0M9B97-36">
          <mxGeometry width="50" height="50" relative="1" as="geometry">
            <mxPoint x="435" y="270" as="sourcePoint" />
            <mxPoint x="480" y="110" as="targetPoint" />
          </mxGeometry>
        </mxCell>
        <mxCell id="yPoj2qN-ZmkGyO0M9B97-85" value="Multiple PC&#39;s" style="whiteSpace=wrap;html=1;aspect=fixed;" vertex="1" parent="1">
          <mxGeometry x="890" y="110" width="80" height="80" as="geometry" />
        </mxCell>
        <mxCell id="yPoj2qN-ZmkGyO0M9B97-86" value="" style="endArrow=none;html=1;rounded=0;entryX=0.5;entryY=1;entryDx=0;entryDy=0;exitX=0.5;exitY=0;exitDx=0;exitDy=0;" edge="1" parent="1" source="yPoj2qN-ZmkGyO0M9B97-85" target="yPoj2qN-ZmkGyO0M9B97-44">
          <mxGeometry width="50" height="50" relative="1" as="geometry">
            <mxPoint x="925" y="190" as="sourcePoint" />
            <mxPoint x="835" y="80" as="targetPoint" />
          </mxGeometry>
        </mxCell>
        <mxCell id="yPoj2qN-ZmkGyO0M9B97-87" value="" style="endArrow=none;html=1;rounded=0;entryX=0.5;entryY=1;entryDx=0;entryDy=0;exitX=0.5;exitY=0;exitDx=0;exitDy=0;" edge="1" parent="1" source="yPoj2qN-ZmkGyO0M9B97-85" target="yPoj2qN-ZmkGyO0M9B97-45">
          <mxGeometry width="50" height="50" relative="1" as="geometry">
            <mxPoint x="930" y="130" as="sourcePoint" />
            <mxPoint x="995" y="80" as="targetPoint" />
          </mxGeometry>
        </mxCell>
        <mxCell id="yPoj2qN-ZmkGyO0M9B97-88" value="AP1" style="rhombus;whiteSpace=wrap;html=1;" vertex="1" parent="1">
          <mxGeometry x="750" y="240" width="80" height="80" as="geometry" />
        </mxCell>
        <mxCell id="yPoj2qN-ZmkGyO0M9B97-89" value="AP4" style="rhombus;whiteSpace=wrap;html=1;" vertex="1" parent="1">
          <mxGeometry x="1045" y="240" width="80" height="80" as="geometry" />
        </mxCell>
        <mxCell id="yPoj2qN-ZmkGyO0M9B97-90" value="AP2" style="rhombus;whiteSpace=wrap;html=1;" vertex="1" parent="1">
          <mxGeometry x="850" y="240" width="80" height="80" as="geometry" />
        </mxCell>
        <mxCell id="yPoj2qN-ZmkGyO0M9B97-91" value="AP3" style="rhombus;whiteSpace=wrap;html=1;" vertex="1" parent="1">
          <mxGeometry x="950" y="240" width="80" height="80" as="geometry" />
        </mxCell>
        <mxCell id="yPoj2qN-ZmkGyO0M9B97-92" value="" style="endArrow=none;html=1;rounded=0;entryX=0.5;entryY=1;entryDx=0;entryDy=0;exitX=0.5;exitY=0;exitDx=0;exitDy=0;" edge="1" parent="1" source="yPoj2qN-ZmkGyO0M9B97-88" target="yPoj2qN-ZmkGyO0M9B97-44">
          <mxGeometry width="50" height="50" relative="1" as="geometry">
            <mxPoint x="965" y="190" as="sourcePoint" />
            <mxPoint x="835" y="80" as="targetPoint" />
          </mxGeometry>
        </mxCell>
        <mxCell id="yPoj2qN-ZmkGyO0M9B97-93" value="" style="endArrow=none;html=1;rounded=0;exitX=0.5;exitY=0;exitDx=0;exitDy=0;entryX=0.5;entryY=1;entryDx=0;entryDy=0;" edge="1" parent="1" source="yPoj2qN-ZmkGyO0M9B97-90" target="yPoj2qN-ZmkGyO0M9B97-44">
          <mxGeometry width="50" height="50" relative="1" as="geometry">
            <mxPoint x="800" y="250" as="sourcePoint" />
            <mxPoint x="835" y="80" as="targetPoint" />
          </mxGeometry>
        </mxCell>
        <mxCell id="yPoj2qN-ZmkGyO0M9B97-94" value="" style="endArrow=none;html=1;rounded=0;entryX=0.5;entryY=1;entryDx=0;entryDy=0;exitX=0.5;exitY=0;exitDx=0;exitDy=0;" edge="1" parent="1" source="yPoj2qN-ZmkGyO0M9B97-91" target="yPoj2qN-ZmkGyO0M9B97-45">
          <mxGeometry width="50" height="50" relative="1" as="geometry">
            <mxPoint x="810" y="260" as="sourcePoint" />
            <mxPoint x="995" y="80" as="targetPoint" />
          </mxGeometry>
        </mxCell>
        <mxCell id="yPoj2qN-ZmkGyO0M9B97-95" value="" style="endArrow=none;html=1;rounded=0;entryX=0.5;entryY=1;entryDx=0;entryDy=0;exitX=0.5;exitY=0;exitDx=0;exitDy=0;" edge="1" parent="1" source="yPoj2qN-ZmkGyO0M9B97-89" target="yPoj2qN-ZmkGyO0M9B97-45">
          <mxGeometry width="50" height="50" relative="1" as="geometry">
            <mxPoint x="820" y="270" as="sourcePoint" />
            <mxPoint x="995" y="80" as="targetPoint" />
          </mxGeometry>
        </mxCell>
        <mxCell id="yPoj2qN-ZmkGyO0M9B97-96" value="Cloud hosted&lt;br&gt;&amp;nbsp;CCTV Server&amp;nbsp;" style="swimlane;whiteSpace=wrap;html=1;startSize=30;" vertex="1" parent="1">
          <mxGeometry x="1260" y="220" width="130" height="95" as="geometry" />
        </mxCell>
        <mxCell id="yPoj2qN-ZmkGyO0M9B97-97" value="Cloud hosted&lt;br&gt;Web-hosting Server&amp;nbsp;" style="swimlane;whiteSpace=wrap;html=1;startSize=30;" vertex="1" parent="1">
          <mxGeometry x="1415" y="220" width="130" height="95" as="geometry" />
        </mxCell>
        <mxCell id="yPoj2qN-ZmkGyO0M9B97-98" value="Cloud hosted&lt;br&gt;&amp;nbsp;Security servers" style="swimlane;whiteSpace=wrap;html=1;startSize=30;" vertex="1" parent="1">
          <mxGeometry x="1730" y="220" width="130" height="95" as="geometry" />
        </mxCell>
        <mxCell id="yPoj2qN-ZmkGyO0M9B97-99" value="&amp;nbsp;Cloud hosted&lt;br&gt;&amp;nbsp;Applications Server" style="swimlane;whiteSpace=wrap;html=1;startSize=30;" vertex="1" parent="1">
          <mxGeometry x="1570" y="220" width="130" height="95" as="geometry">
            <mxRectangle x="215" y="350" width="200" height="30" as="alternateBounds" />
          </mxGeometry>
        </mxCell>
        <mxCell id="yPoj2qN-ZmkGyO0M9B97-100" value="" style="endArrow=none;html=1;rounded=0;entryX=0.5;entryY=1;entryDx=0;entryDy=0;exitX=0.5;exitY=0;exitDx=0;exitDy=0;" edge="1" parent="1" source="yPoj2qN-ZmkGyO0M9B97-96" target="yPoj2qN-ZmkGyO0M9B97-53">
          <mxGeometry width="50" height="50" relative="1" as="geometry">
            <mxPoint x="1310" y="70" as="sourcePoint" />
            <mxPoint x="1360" y="20" as="targetPoint" />
          </mxGeometry>
        </mxCell>
        <mxCell id="yPoj2qN-ZmkGyO0M9B97-101" value="" style="endArrow=none;html=1;rounded=0;exitX=0.5;exitY=0;exitDx=0;exitDy=0;" edge="1" parent="1" source="yPoj2qN-ZmkGyO0M9B97-97">
          <mxGeometry width="50" height="50" relative="1" as="geometry">
            <mxPoint x="1335" y="230" as="sourcePoint" />
            <mxPoint x="1560" y="-70" as="targetPoint" />
          </mxGeometry>
        </mxCell>
        <mxCell id="yPoj2qN-ZmkGyO0M9B97-102" value="" style="endArrow=none;html=1;rounded=0;entryX=0.5;entryY=1;entryDx=0;entryDy=0;exitX=0.5;exitY=0;exitDx=0;exitDy=0;" edge="1" parent="1" source="yPoj2qN-ZmkGyO0M9B97-99" target="yPoj2qN-ZmkGyO0M9B97-53">
          <mxGeometry width="50" height="50" relative="1" as="geometry">
            <mxPoint x="1345" y="240" as="sourcePoint" />
            <mxPoint x="1580" y="-50" as="targetPoint" />
          </mxGeometry>
        </mxCell>
        <mxCell id="yPoj2qN-ZmkGyO0M9B97-103" value="" style="endArrow=none;html=1;rounded=0;exitX=0.5;exitY=0;exitDx=0;exitDy=0;" edge="1" parent="1" source="yPoj2qN-ZmkGyO0M9B97-98">
          <mxGeometry width="50" height="50" relative="1" as="geometry">
            <mxPoint x="1355" y="250" as="sourcePoint" />
            <mxPoint x="1560" y="-70" as="targetPoint" />
          </mxGeometry>
        </mxCell>
      </root>
    </mxGraphModel>
  </diagram>
</mxfile>
